# xmcd
#
# Track frame offsets:
#	150
#	13153
#	27425
#	38900
#	52950
#	71088
#	86025
#	105758
#	118518
#	129268
#	142360
#	153978
#	168248
#	181443
#	193985
#
# Disc length: 2768 seconds
#
# Revision: 1
# Processed by: cddbd v1.5.1PL0 Copyright (c) Steve Scherf et al.
# Submitted via: CDex 1.50Beta5
#
DISCID=ce0ace0f
DTITLE=水木一郎 - ロボットアニメメモリアルVOL.3 超電磁ロボ コン・バトラーV/宇宙魔神ダイケンゴー
DYEAR=1998
DGENRE=
TTITLE0=水木一郎/コン・バトラーVのテーマ
TTITLE1=水木一郎/行くぞ!正義の戦いに
TTITLE2=水木一郎/行け!コン・バトラーV
TTITLE3=堀江美都子/ボルテスVの歌
TTITLE4=水木一郎/父をもとめて
TTITLE5=ささきいさお/立て!闘将ダイモス
TTITLE6=かおりくみこ/エリカのバラード
TTITLE7=堀江美都子/宇宙魔神ダイケンゴーの歌
TTITLE8=MOJO/宇宙の男ライガー
TTITLE9=堀江美都子/ダルタニアスの歌
TTITLE10=こおろぎ’73/剣人・男意気
TTITLE11=ささきいさお/がんばれ!宇宙の戦士
TTITLE12=かおりくみこ/レッド・ブルー・イエロー
TTITLE13=水木一郎/斗え!ゴライオン
TTITLE14=水木一郎/五人でひとつ
EXTD=
EXTT0=
EXTT1=
EXTT2=
EXTT3=
EXTT4=
EXTT5=
EXTT6=
EXTT7=
EXTT8=
EXTT9=
EXTT10=
EXTT11=
EXTT12=
EXTT13=
EXTT14=
PLAYORDER=
